<svg width="1918" height="151" viewBox="0 0 1918 151" fill="none" xmlns="http://www.w3.org/2000/svg">
<path d="M0.0302045 0.0800781L0 137.014C32.105 137.017 32.1 149.85 64.205 149.853C96.3106 149.856 96.3155 137.023 128.421 137.026C160.526 137.029 160.521 149.862 192.625 149.865C224.731 149.868 224.736 137.035 256.842 137.038C288.947 137.041 288.943 149.874 321.048 149.877C353.152 149.88 353.157 137.047 385.261 137.05C417.367 137.053 417.362 149.886 449.468 149.889C481.575 149.892 481.58 137.059 513.686 137.062C545.795 137.065 545.79 149.898 577.898 149.901C608.962 149.904 609.98 137.893 639.09 137.115C668.197 137.899 669.205 149.909 700.267 149.912C732.372 149.915 732.377 137.082 764.483 137.085C796.587 137.088 796.582 149.921 828.687 149.924C860.793 149.927 860.797 137.094 892.903 137.097C925.009 137.1 925.004 149.933 957.109 149.936C989.214 149.939 989.219 137.106 1021.32 137.109C1053.43 137.112 1053.42 149.945 1085.53 149.948C1117.64 149.951 1117.64 137.118 1149.75 137.121C1181.86 137.124 1181.85 149.957 1213.96 149.96C1245.67 149.963 1246.09 137.457 1277.02 137.148C1307.94 137.463 1308.35 149.969 1340.06 149.972C1372.16 149.975 1372.17 137.142 1404.27 137.145C1436.38 137.148 1436.37 149.981 1468.48 149.984C1500.58 149.987 1500.59 137.154 1532.69 137.157C1564.8 137.16 1564.79 149.993 1596.9 149.996C1629 149.999 1629.01 137.166 1661.11 137.169C1693.22 137.172 1693.21 150.005 1725.32 150.008C1757.43 150.011 1757.43 137.178 1789.54 137.181C1821.65 137.184 1821.64 150.017 1853.75 150.02C1885.86 150.023 1885.86 137.19 1917.97 137.193L1918 0.258675L0.0302045 0.0800781Z" fill="url(#paint0_radial_332_788)"/>
<defs>
<radialGradient id="paint0_radial_332_788" cx="0" cy="0" r="1" gradientUnits="userSpaceOnUse" gradientTransform="translate(778.607 107.075) rotate(-90) scale(276.799 1575.54)">
<stop stop-color="#C9D0D6"/>
<stop offset="0.371678" stop-color="#C9D0D6" stop-opacity="0.613182"/>
<stop offset="1" stop-color="#C9D0D6" stop-opacity="0"/>
</radialGradient>
</defs>
</svg>
