<svg width="1918" height="151" viewBox="0 0 1918 151" fill="none" xmlns="http://www.w3.org/2000/svg">
<path d="M0.0302045 150.08L-1.28714e-05 13.146C32.105 13.143 32.1 0.310376 64.205 0.307398C96.3105 0.30439 96.3155 13.137 128.421 13.1341C160.526 13.1311 160.521 0.298403 192.625 0.29541C224.731 0.292416 224.736 13.1251 256.842 13.1221C288.947 13.1191 288.942 0.286445 321.048 0.283467C353.152 0.280474 353.157 13.1131 385.261 13.1101C417.367 13.1071 417.362 0.274487 449.468 0.271494C481.575 0.2685 481.58 13.1011 513.686 13.0981C545.795 13.0951 545.79 0.262514 577.898 0.25952C608.962 0.256619 609.98 12.2669 639.09 13.0453C668.197 12.2615 669.205 0.250998 700.267 0.248097C732.372 0.245103 732.377 13.0778 764.483 13.0748C796.587 13.0718 796.582 0.239132 828.687 0.236154C860.793 0.233161 860.797 13.0658 892.903 13.0628C925.009 13.0598 925.004 0.227174 957.109 0.224196C989.214 0.221203 989.219 13.0539 1021.32 13.0509C1053.43 13.0479 1053.42 0.215216 1085.53 0.212238C1117.64 0.209244 1117.64 13.0419 1149.75 13.0389C1181.86 13.0359 1181.85 0.203258 1213.96 0.200264C1245.67 0.197302 1246.09 12.7029 1277.02 13.0123C1307.94 12.6972 1308.35 0.191468 1340.06 0.188505C1372.16 0.185512 1372.17 13.0182 1404.27 13.0152C1436.38 13.0122 1436.37 0.179525 1468.48 0.176532C1500.58 0.173538 1500.59 13.0062 1532.69 13.0032C1564.8 13.0002 1564.79 0.167552 1596.9 0.164574C1629 0.161565 1629.01 12.9943 1661.11 12.9912C1693.22 12.9883 1693.21 0.155578 1725.32 0.152585C1757.43 0.149592 1757.43 12.9822 1789.54 12.9793C1821.65 12.9763 1821.64 0.14362 1853.75 0.140627C1885.86 0.137634 1885.86 12.9703 1917.97 12.9673L1918 149.901L0.0302045 150.08Z" fill="url(#paint0_radial_332_789)"/>
<defs>
<radialGradient id="paint0_radial_332_789" cx="0" cy="0" r="1" gradientUnits="userSpaceOnUse" gradientTransform="translate(778.607 43.0849) rotate(90) scale(276.799 1575.54)">
<stop stop-color="#C9D0D6"/>
<stop offset="0.371678" stop-color="#C9D0D6" stop-opacity="0.613182"/>
<stop offset="1" stop-color="#C9D0D6" stop-opacity="0"/>
</radialGradient>
</defs>
</svg>
