<svg width="1918" height="491" viewBox="0 0 1918 491" fill="none" xmlns="http://www.w3.org/2000/svg">
<path d="M1917.97 490.019L1918 20.1414C1885.9 20.1369 1885.9 0.478726 1853.79 0.474146C1821.69 0.469566 1821.68 20.1277 1789.58 20.1231C1757.47 20.1185 1757.48 0.460374 1725.37 0.455794C1693.27 0.451213 1693.26 20.1094 1661.16 20.1048C1629.05 20.1002 1629.06 0.442052 1596.95 0.437502C1564.85 0.432922 1564.84 20.091 1532.74 20.0865C1500.63 20.0819 1500.64 0.423761 1468.53 0.419181C1436.43 0.4146 1436.42 20.0727 1404.31 20.0681C1372.21 20.0635 1372.21 0.405409 1340.1 0.400828C1309.04 0.396401 1308.02 18.7948 1278.91 19.9872C1249.8 18.7865 1248.79 0.387789 1217.73 0.383331C1185.63 0.378751 1185.62 20.0369 1153.52 20.0323C1121.41 20.0278 1121.42 0.36959 1089.31 0.36504C1057.21 0.360459 1057.2 20.0186 1025.1 20.014C992.991 20.0094 992.996 0.351268 960.891 0.346749C928.786 0.342138 928.781 20.0003 896.677 19.9957C864.571 19.9911 864.576 0.332977 832.471 0.328427C800.364 0.323846 800.359 19.982 768.252 19.9774C736.144 19.9728 736.149 0.314655 704.041 0.310075C672.333 0.305555 671.911 19.4627 640.985 19.9367C610.061 19.4539 609.648 0.296608 577.944 0.292058C545.839 0.287478 545.834 19.9456 513.728 19.941C481.624 19.9365 481.629 0.278317 449.524 0.273736C417.418 0.269156 417.413 19.9273 385.307 19.9227C353.202 19.9182 353.207 0.259995 321.101 0.255415C288.997 0.250834 288.992 19.909 256.888 19.9044C224.782 19.8998 224.787 0.241643 192.681 0.237062C160.574 0.232482 160.569 19.8906 128.463 19.886C96.3547 19.8815 96.3597 0.223352 64.2515 0.218741C32.1434 0.21416 32.1383 19.8723 0.0301925 19.8677L2.39277e-08 489.745L1917.97 490.019Z" fill="url(#paint0_radial_332_755)"/>
<defs>
<radialGradient id="paint0_radial_332_755" cx="0" cy="0" r="1" gradientUnits="userSpaceOnUse" gradientTransform="translate(1139.39 65.9941) rotate(90) scale(424.024 1575.54)">
<stop stop-color="#C9D0D6"/>
<stop offset="0.371678" stop-color="#C9D0D6" stop-opacity="0.613182"/>
<stop offset="1" stop-color="#C9D0D6" stop-opacity="0"/>
</radialGradient>
</defs>
</svg>
