<svg width="1918" height="490" viewBox="0 0 1918 490" fill="none" xmlns="http://www.w3.org/2000/svg">
<path d="M0.0302045 0L0 469.878C32.105 469.883 32.1 489.541 64.205 489.546C96.3106 489.55 96.3155 469.892 128.421 469.897C160.526 469.901 160.521 489.559 192.625 489.564C224.731 489.568 224.736 469.91 256.842 469.915C288.947 469.919 288.943 489.578 321.048 489.582C353.152 489.587 353.157 469.929 385.261 469.933C417.367 469.938 417.362 489.596 449.468 489.6C481.575 489.605 481.58 469.947 513.686 469.951C545.795 469.956 545.79 489.614 577.898 489.619C608.962 489.623 609.98 471.225 639.09 470.032C668.197 471.233 669.205 489.632 700.267 489.636C732.372 489.641 732.377 469.983 764.483 469.987C796.587 469.992 796.582 489.65 828.687 489.655C860.793 489.659 860.797 470.001 892.903 470.006C925.009 470.01 925.004 489.668 957.109 489.673C989.214 489.677 989.219 470.019 1021.32 470.024C1053.43 470.028 1053.42 489.687 1085.53 489.691C1117.64 489.696 1117.64 470.038 1149.75 470.042C1181.86 470.047 1181.85 489.705 1213.96 489.71C1245.67 489.714 1246.09 470.557 1277.02 470.083C1307.94 470.566 1308.35 489.723 1340.06 489.728C1372.16 489.732 1372.17 470.074 1404.27 470.078C1436.38 470.083 1436.37 489.741 1468.48 489.746C1500.58 489.75 1500.59 470.092 1532.69 470.097C1564.8 470.101 1564.79 489.76 1596.9 489.764C1629 489.769 1629.01 470.111 1661.11 470.115C1693.22 470.12 1693.21 489.778 1725.32 489.782C1757.43 489.787 1757.43 470.129 1789.54 470.133C1821.65 470.138 1821.64 489.796 1853.75 489.801C1885.86 489.805 1885.86 470.147 1917.97 470.152L1918 0.273591L0.0302045 0Z" fill="url(#paint0_radial_677_1487)"/>
<defs>
<radialGradient id="paint0_radial_677_1487" cx="0" cy="0" r="1" gradientUnits="userSpaceOnUse" gradientTransform="translate(778.607 424.025) rotate(-90) scale(424.025 1575.54)">
<stop stop-color="#C9D0D6"/>
<stop offset="0.371678" stop-color="#C9D0D6" stop-opacity="0.613182"/>
<stop offset="1" stop-color="#C9D0D6" stop-opacity="0"/>
</radialGradient>
</defs>
</svg>
